<svg width="28" height="32" viewBox="0 0 28 32" fill="none" xmlns="http://www.w3.org/2000/svg">
<path d="M27.4657 7.61197L14.5427 0.14532C14.378 0.0501486 14.1907 0 14 0C13.8093 0 13.622 0.0501486 13.4573 0.14532L0.534262 7.61197C0.371682 7.70591 0.236799 7.84042 0.143058 8.00208C0.0493177 8.16375 -7.15191e-06 8.34692 7.77688e-10 8.53335V23.4666C-7.15191e-06 23.6531 0.0493177 23.8363 0.143058 23.9979C0.236799 24.1596 0.371682 24.2941 0.534262 24.388L13.4573 31.8547C13.622 31.9499 13.8093 32 14 32C14.1907 32 14.378 31.9499 14.5427 31.8547L27.4657 24.388C27.6283 24.2941 27.7632 24.1596 27.8569 23.9979C27.9507 23.8363 28 23.6531 28 23.4666V8.53335C28 8.34692 27.9507 8.16375 27.8569 8.00208C27.7632 7.84042 27.6283 7.70591 27.4657 7.61197ZM14 2.30158L24.786 8.53335L14 14.7651L3.21397 8.53335L14 2.30158ZM2.15385 10.3906L12.9231 16.6125V29.076L2.15385 22.8542V10.3906ZM15.0769 29.076V16.6125L25.8462 10.3906V22.8542L15.0769 29.076Z" fill="#9CA3AF"/>
</svg>
