<svg width="88" height="12" viewBox="0 0 88 12" fill="none" xmlns="http://www.w3.org/2000/svg">
<g clip-path="url(#clip0_16452_5305)">
<path d="M11.7928 9.04313C13.2691 9.46372 15.0489 8.04003 16.0358 7.07187L14.6211 9.021C14.1654 9.78527 13.5144 11.3057 14.5827 11.8486C15.7196 12.4253 16.7751 11.2416 17.3773 10.4121C18.112 9.39964 18.2073 9.20275 18.5537 8.00275C19.1535 8.03886 19.6732 7.73479 20.1196 7.36896C20.0998 9.80624 22.8258 9.27032 24.1126 8.18333C24.1231 8.33712 23.9243 8.38838 24.0743 8.55381C24.2207 8.71692 24.9298 9.05246 25.1391 8.98954C25.2298 8.96275 25.7889 8.19498 25.9063 8.05401C26.4352 7.41789 28.308 5.20663 29.038 5.08314C29.1891 5.0575 29.3682 5.05168 29.4728 5.18449C29.5123 5.28003 29.4984 5.37673 29.4623 5.46993C29.331 5.81246 28.6486 6.53479 28.4033 6.92624C28.1011 7.4109 27.6884 8.14721 28.0697 8.69712C28.4986 9.31576 29.646 8.97789 30.1528 8.60391L30.8945 8.07032C30.9724 8.73906 31.6373 9.08275 32.2488 9.13867C33.6379 9.26682 34.6306 8.3744 35.5525 7.47731C35.5176 8.10411 35.8292 8.70993 36.415 8.96391C38.1018 9.69556 40.4395 7.63925 41.4299 6.42178C41.5078 6.32741 41.8205 5.94411 41.8333 5.85906C41.8612 5.67847 41.4787 5.52003 41.3195 5.5678C41.2288 5.59459 40.5406 6.30411 40.3767 6.44042C39.7746 6.94255 38.8027 7.56352 38.032 7.71964C37.1509 7.89789 36.9533 7.49246 37.1114 6.6676C38.261 6.66877 39.6258 6.28663 40.3581 5.3476C41.0277 4.49013 40.6371 3.58022 39.563 3.48003C37.3543 3.27381 36.2453 5.90216 34.7934 7.10566C34.7608 7.13246 34.5783 7.28275 34.5539 7.25479V4.8676C34.5539 4.71614 34.6783 4.35731 34.7446 4.20702C34.8829 3.89129 35.1177 3.65013 35.2898 3.35537C35.1305 3.16663 34.4807 2.84275 34.2587 2.94411C34.1517 2.99304 33.8041 3.4509 33.7053 3.5744C32.8195 4.68236 32.0744 5.94993 31.0061 6.90411C30.7608 7.12314 30.0296 7.73013 29.6983 7.62061C29.4949 7.32935 29.8506 6.88081 30.0296 6.62915C30.3807 6.13401 31.4071 5.08546 31.4838 4.53207C31.5606 3.97517 31.0979 3.5243 30.5725 3.45323C29.2682 3.27614 28.0069 4.86178 27.163 5.66449C27.2641 5.33828 28.0662 4.28741 28.0499 4.02061C28.036 3.78061 27.3745 3.3542 27.142 3.43692C26.4678 4.2909 26.0888 5.40702 25.2774 6.16546C24.6171 6.78178 23.1152 7.80236 22.1957 7.77207C21.5924 7.75226 21.5633 7.13246 21.6889 6.68042C22.7886 6.65013 24.0964 6.33556 24.8345 5.46294C26.0888 3.97983 24.4195 3.08857 22.9862 3.64896C21.2809 4.31653 20.8414 6.13634 19.5174 6.7643C19.357 6.84003 18.8083 7.02294 18.6955 6.82139C18.6514 6.741 18.6374 6.36818 18.6037 6.21906C18.5525 5.99537 18.4526 5.78915 18.3712 5.57828C19.0419 4.45401 19.8336 3.39032 20.4857 2.25673C20.6624 1.95032 20.8112 1.83265 20.6624 1.45634C20.5741 1.23381 20.2672 0.915756 20.0091 0.962358C19.9231 0.977504 19.7092 1.34682 19.6418 1.44818C18.9141 2.53983 18.2515 3.67809 17.5307 4.77556C17.4377 4.85362 17.1367 4.79653 16.9855 4.82216C16.667 4.87692 16.4206 5.20081 16.3183 5.48624C16.2846 5.57828 16.3101 5.66799 16.2578 5.75886C16.1032 6.02915 15.1779 6.74216 14.885 6.93789C14.0863 7.46915 11.8939 8.62721 12.2648 6.66527C13.2994 6.66644 14.4386 6.39148 15.2209 5.68314C15.8498 5.11226 16.2474 4.08585 15.2709 3.63381C13.2994 2.72158 10.7175 5.68663 10.7071 7.53323C10.7036 8.22061 11.1267 8.85323 11.7905 9.04197H11.7916L11.7928 9.04313ZM37.7554 5.58993C38.075 5.22644 38.7086 4.68003 39.2015 4.63226C39.3398 4.61828 39.4735 4.61828 39.5665 4.73945C39.6839 4.98527 39.3886 5.31265 39.2154 5.46178C38.7156 5.89284 38.0053 6.07576 37.3671 6.18294C37.3171 6.11653 37.6868 5.66799 37.7542 5.58993H37.7554ZM31.5071 7.44119C31.5292 7.38993 31.993 6.93323 32.0802 6.82838C32.5231 6.29712 32.8986 5.71459 33.338 5.18216C33.3066 5.82178 33.295 6.49051 33.1427 7.11381C33.0195 7.61712 32.6928 8.4478 32.0174 8.22527C31.8058 8.15537 31.4199 7.64857 31.5071 7.44003V7.44119ZM22.2643 5.66333C22.5991 5.27071 23.4372 4.51459 23.9859 4.64391C24.4056 4.74294 24.0231 5.25323 23.836 5.42333C23.3535 5.86372 22.5805 6.07459 21.9504 6.18178C21.8981 6.11187 22.2015 5.73673 22.2643 5.66333ZM17.1634 7.47964L17.6516 7.82799C17.2564 8.92314 17.1204 9.16313 16.3485 10.0451C16.1869 10.2292 15.6813 10.8035 15.415 10.553C15.1814 10.3328 15.5685 9.69789 15.6952 9.46488C16.2497 8.44546 16.5554 8.46993 17.1646 7.47964H17.1634ZM12.9855 5.51537C13.3005 5.17051 14.0503 4.56585 14.5362 4.62993C14.6025 4.63809 14.6722 4.68119 14.7327 4.71148C14.8745 5.0342 14.5141 5.36974 14.2747 5.54682C13.776 5.91614 13.1331 6.09556 12.5252 6.18178C12.4845 6.12935 12.9157 5.59226 12.9867 5.51537H12.9855Z" fill="white"/>
<path d="M0.782917 9.14454C2.04303 9.88668 4.04713 9.7527 5.44674 9.37755C8.55983 8.54454 11.8299 5.59114 11.5974 2.68202C11.3474 -0.436819 6.41391 -0.377401 3.88787 0.574443C2.6417 1.04396 0.882889 2.22648 1.25488 3.54648C1.43506 4.18609 2.33132 4.49134 2.89512 4.24668C2.14998 3.90881 2.11627 3.44046 2.1895 3.14338C2.20113 3.07347 2.23019 2.99658 2.27901 2.9127C2.29761 2.87774 2.31156 2.85794 2.31156 2.85794C2.31156 2.85794 2.31389 2.85794 2.31505 2.85794C2.32551 2.84163 2.33481 2.82532 2.3476 2.80784C2.80561 2.17988 4.03202 1.62532 5.21773 1.28046C6.15584 1.00784 7.15789 0.913473 8.13785 1.04629C8.35407 1.07541 8.57029 1.11619 8.77256 1.17328C9.11433 1.28279 9.92689 1.67541 9.87458 2.93949C9.78856 4.06726 9.112 5.56901 7.17765 7.16396C7.17417 7.16745 7.17068 7.17095 7.16719 7.17444C7.16719 7.17444 7.07884 7.256 6.91377 7.376C6.36276 7.77794 4.94572 8.6226 2.97766 8.42804C4.20406 6.60473 5.35025 5.13328 6.62897 3.3391C6.80799 3.08862 7.20439 2.58998 7.27414 2.35464C7.33459 2.14842 6.85565 1.85483 6.65687 1.7791C6.41159 1.68473 6.34998 1.80124 6.23838 1.95037L1.75707 8.10299C1.25488 7.93173 0.988674 7.46454 1.12701 7.02066C-0.359789 7.12318 -0.267954 8.5259 0.782917 9.14454Z" fill="white"/>
<path d="M48.4202 8.38257C47.2054 9.28082 45.9557 9.78762 45.0606 9.56276C44.4887 9.41946 43.2065 8.47694 43.9191 5.62723C44.3457 3.92276 44.8897 2.48626 46.0243 0.748004C46.2975 0.340237 46.6148 -0.0290832 46.8636 0.0326644C47.3356 0.151499 48.2772 1.03461 48.1493 1.5449C48.1214 1.65674 48.0063 1.53558 47.761 1.77791C47.0089 2.51538 45.8767 4.9282 45.5093 6.39616C45.2327 7.50412 45.2757 8.33364 45.7349 8.44898C46.3568 8.60509 47.4995 8.15072 48.5317 7.0882C48.9991 5.43383 50.5672 0.961208 51.6483 1.23266C52.0587 1.33519 52.6016 2.27771 52.4993 2.68898C52.1819 3.95771 51.4135 5.28587 50.4568 6.42063C50.2952 6.80276 50.1487 7.22917 49.9837 7.88859C49.8 8.62257 49.7128 9.3414 50.172 9.87966C50.2127 9.92975 50.2499 9.93907 50.2243 10.0381C50.1836 10.2 49.9418 10.2711 49.7547 10.2245C49.4059 10.1371 48.5957 9.4183 48.419 8.38257H48.4202Z" fill="white"/>
<path d="M87.4651 5.60967C86.9839 6.07453 86.5735 6.61977 86.0702 7.06365C85.9853 7.13822 85.8621 7.2489 85.7551 7.28501V4.82327C85.7551 4.772 85.8481 4.45977 85.8749 4.38754C86.0086 4.01705 86.2887 3.71297 86.4863 3.37977C86.477 3.25161 85.7319 2.95686 85.5877 2.9522C85.4238 2.94754 85.2716 3.15375 85.1658 3.26909C84.051 4.49705 83.3256 6.03026 81.9864 7.11725C81.7667 7.2955 81.1866 7.74404 80.9007 7.64851C80.8158 7.61239 80.8344 7.49123 80.8379 7.412C80.8646 6.84462 82.2701 5.53045 82.5723 4.85472C82.8699 4.19297 82.4874 3.60579 81.8028 3.48812C80.5229 3.26793 79.1744 4.88385 78.363 5.69239L79.2476 4.04501C79.2488 3.82482 78.5699 3.39142 78.3607 3.44967C78.2921 3.46831 78.2654 3.52657 78.2282 3.57666C77.7667 4.19064 77.4214 5.02132 76.9739 5.65161C76.6019 6.17589 75.3487 7.49589 74.7408 7.63453C74.2676 7.74171 74.4281 7.30598 74.5373 7.02404C74.8303 6.26909 75.4255 6.26676 75.4138 5.49783C75.4022 4.65433 74.5048 4.32346 74.0026 3.80501C74.1572 3.37394 74.1014 2.33356 73.5411 2.22754C72.8331 2.09239 72.8622 3.21317 72.9657 3.65589C72.9982 3.79453 73.1924 4.16152 73.1924 4.19181C73.1924 4.23375 73.0273 4.53433 72.9912 4.6054C72.5483 5.45822 71.6486 6.31453 70.7581 6.6454C70.5803 6.71181 70.4152 6.73161 70.2304 6.68967C70.4722 6.33899 70.9476 5.07026 70.2501 4.98637C69.426 4.88734 68.8284 5.90793 68.8633 6.63375C68.868 6.7188 68.9273 6.83297 68.9203 6.89356C68.9028 7.05433 68.2716 7.50521 68.1112 7.58443C67.3091 7.98055 66.8883 7.5856 67.208 6.75375C67.4788 6.04657 68.4007 5.12618 69.0598 4.75802C69.5794 4.46793 70.3629 4.27453 70.6558 4.94909C71.5475 4.23958 70.9964 3.57433 70.0281 3.5056C67.6962 3.33666 66.5523 5.83569 64.94 7.03802C64.3948 7.44462 63.6357 7.9456 62.9289 7.87336C62.6523 7.8454 62.4721 7.73705 62.4325 7.44462C62.3558 6.88307 62.5965 6.37744 62.9173 5.93705C63.3242 5.37899 64.6029 4.14637 65.2759 4.89433C65.348 4.97356 65.3922 5.15763 65.5084 5.12851C65.6398 5.09589 66.1908 4.57395 66.221 4.43181C66.2815 4.14637 65.8363 3.81666 65.6096 3.70831C64.5575 3.20268 63.495 3.66288 62.6708 4.35841C61.8455 5.05511 60.3169 7.52152 59.3706 7.67996C58.7126 7.78948 59.2416 6.91453 59.3787 6.65123C59.8216 5.80307 59.9542 5.90327 60.447 5.08424C60.4668 4.87919 60.0169 4.57511 59.8426 4.50637C59.6077 4.41433 59.6008 4.39686 59.4334 4.59026C58.3941 5.78094 58.3174 6.4054 56.8969 7.34793C56.776 7.42831 56.1773 7.78365 56.068 7.62987C55.9727 7.39569 56.1157 7.17084 56.2285 6.97511C56.59 6.34482 57.921 5.07026 57.921 4.41317C57.921 3.94016 57.4363 3.55569 56.9992 3.48579C55.6867 3.27608 54.4603 4.87686 53.5966 5.65278C53.7989 5.19142 54.1511 4.77899 54.3557 4.32229C54.5161 3.96346 54.4313 3.87608 54.1255 3.66171C53.8419 3.46249 53.6385 3.32152 53.4106 3.63492C52.8015 4.47142 52.2458 5.56657 51.689 6.46365C51.2787 7.12424 50.8485 7.772 50.4312 8.42793C50.4045 8.51414 50.5382 8.61317 50.6056 8.6656C50.7753 8.79958 51.4112 9.10715 51.6007 9.00113C51.975 8.5153 52.3493 8.02482 52.748 7.5588C53.2153 7.01123 54.8451 5.17278 55.5007 5.09589C55.6658 5.07608 55.86 5.09356 55.9123 5.28113C55.9541 5.43026 55.7495 5.6854 55.6623 5.81239C55.2148 6.46132 53.7431 8.02249 54.558 8.81822C55.3089 9.54987 56.8097 8.57239 57.3874 7.98404C57.3874 8.37899 57.3956 8.70987 57.778 8.9254C58.8463 9.5254 60.2204 8.19725 60.9178 7.50288C60.9062 9.0454 62.2512 9.39725 63.5253 8.94754C64.3227 8.6656 64.9632 8.09356 65.6131 7.57744V8.11453C65.6131 8.37783 65.8955 8.76695 66.1187 8.90327C67.0603 9.4788 68.2542 8.7821 68.9772 8.15181C69.1063 8.0388 69.5573 7.51919 69.6433 7.48424C69.7096 7.45627 69.9351 7.53433 70.0304 7.54016C71.4556 7.6287 72.2961 6.94016 72.9668 5.87181C73.2168 5.47336 73.4341 5.05744 73.6748 4.65433C74.3351 4.98288 74.4095 5.31841 74.4095 5.31841C74.4095 5.31841 74.6815 5.92773 73.9177 6.30637C73.741 6.39375 73.5969 6.47181 73.4795 6.53938C72.9831 6.82016 72.7634 7.19181 72.6844 7.36307C72.6716 7.39336 72.6588 7.42482 72.646 7.45744C72.1984 8.62598 72.9785 9.3122 74.1328 8.98249C74.5257 8.86948 74.8535 8.62016 75.2069 8.42909C75.2569 8.62482 75.4905 8.74016 75.6614 8.82637C75.8265 8.90909 76.1997 9.08152 76.3717 9.00229C76.8843 8.38132 77.3691 7.73356 77.9062 7.13356C78.3258 6.66404 79.7045 5.17511 80.2764 5.10171C80.524 5.07026 80.7682 5.14016 80.6903 5.44074C80.6368 5.64695 79.9858 6.39725 79.8184 6.64191C79.4313 7.20462 78.7059 8.26598 79.4046 8.8555C80.1695 9.50094 81.468 8.60618 82.0852 8.09589C82.2956 9.1887 83.6732 9.32851 84.5601 9.05589C85.5703 8.74482 86.5573 7.74171 87.2245 6.94948C87.4082 6.73162 87.8766 6.19453 87.9848 5.97084C88.1103 5.7122 87.6779 5.53161 87.4744 5.60734H87.4733L87.4651 5.60967ZM83.7348 8.20424C83.2221 8.50482 82.7013 7.98171 82.7037 7.47026L84.5346 5.24851C84.4706 6.00346 84.4822 7.76501 83.7348 8.20424Z" fill="white"/>
<path d="M61.0562 2.87074C60.561 2.95345 60.1867 3.51151 60.1797 3.91112C60.1762 4.13365 60.4889 4.36899 60.7458 4.41093C61.5724 4.54724 62.5256 3.14802 61.4096 2.88472C61.2957 2.85792 61.1725 2.85093 61.0562 2.87074Z" fill="white"/>
</g>
<defs>
<clipPath id="clip0_16452_5305">
<rect width="88" height="12" fill="white"/>
</clipPath>
</defs>
</svg>
