<svg width="109" height="16" viewBox="0 0 109 16" fill="none" xmlns="http://www.w3.org/2000/svg">
<g clip-path="url(#clip0_7033_21688)">
<path d="M7.78491 12.01C7.77577 12.3735 7.82946 12.7358 7.94358 13.0807H8.17366C8.80836 13.0807 11.8232 11.1536 11.8232 6.96052C11.8232 3.0009 8.97258 0.930734 7.09705 0.930734C4.9018 0.930734 2.97152 2.82179 2.97152 6.19371C2.97152 8.35263 3.94499 9.31215 4.4226 9.31215C4.88276 9.31215 4.84785 9.09865 4.98986 9.09865C5.36116 9.09865 5.02477 9.70475 4.51384 9.70475C2.9739 9.70475 0.424805 8.93793 0.424805 5.65557C0.424805 2.92574 2.47805 0 6.12438 0C10.3903 0 13.7542 3.31834 13.7542 7.43628C13.7542 11.4503 11.1694 15.0541 9.31135 15.0541C8.65682 15.0541 7.94914 14.6975 7.45328 14.2329C7.02803 14.2153 6.53297 14.073 6.24973 13.7875C5.78878 13.3078 5.73563 12.0748 5.73563 11.3255C5.73563 8.84678 6.10772 4.70645 7.20495 4.70645C8.4442 4.70645 8.92181 5.27736 8.92181 5.47406C8.92181 5.97381 7.78967 6.43358 7.78967 12.0036" fill="white"/>
<path d="M17.5436 5.90829C16.8533 6.05142 16.1948 7.35397 16.1948 9.56566C16.1948 9.6904 16.2131 9.83353 16.2131 9.95827C16.6375 9.90469 17.7205 8.85242 17.7205 6.92538C17.7315 6.5777 17.6713 6.23146 17.5436 5.90829ZM20.2165 9.4945C20.2339 9.33458 20.3045 9.26262 20.3934 9.26262C20.5878 9.26262 20.8694 9.60165 20.8694 9.97586C20.8694 11.655 19.6476 13.9363 17.8776 13.9363C15.5943 13.9363 14.6025 11.8669 14.6025 9.6904C14.6025 6.51519 15.7355 5.21264 17.2405 5.21264C17.2405 4.78485 17.5579 4.71289 17.7356 4.71289C18.7273 4.71289 19.0843 5.40934 19.0843 6.80065C19.0843 8.99475 17.5975 10.6715 16.4995 10.6715H16.3408C16.5892 11.5279 17.1342 12.3667 18.2172 12.3667C19.4747 12.3667 20.076 10.9218 20.218 9.4945" fill="white"/>
<path d="M22.2489 5.44455C22.9392 2.3261 24.161 0.984375 25.8429 0.984375C26.5506 0.984375 27.1877 1.39457 27.1877 1.82316C27.1877 2.929 25.1701 4.9416 24.9044 4.9416C24.8687 4.9416 24.8512 4.90642 24.8512 4.87043C24.8512 4.62096 25.9841 3.30002 25.9841 2.07183C25.9841 1.91191 25.9135 1.82236 25.7723 1.82236C25.3296 1.82236 24.391 2.51801 23.8428 5.47973C25.0638 5.42536 26.5149 5.12311 26.6038 5.12311C26.745 5.12311 26.8521 5.26544 26.8521 5.46134C26.8521 5.81876 25.4177 6.26094 23.6834 6.46084C23.4933 8.08939 23.4035 9.72824 23.4144 11.368C23.4144 14.472 24.0158 14.6679 24.0158 15.0605C24.0158 15.2205 23.8397 15.3284 23.5739 15.3284C22.7416 15.3284 21.6261 14.7399 21.6261 12.9912C21.6261 10.3861 21.7682 8.26314 22.0331 6.56879H21.8388C21.3627 6.56879 20.9185 5.80117 20.9185 5.56928C20.9185 5.39097 21.166 5.03435 21.3437 5.03435C21.364 5.03566 21.3838 5.04108 21.4019 5.05029C21.42 5.05949 21.4361 5.07229 21.4492 5.08792C21.5738 5.23025 21.3961 5.37338 22.2426 5.44455" fill="white"/>
<path d="M28.8776 5.90829C28.1873 6.05142 27.5288 7.35397 27.5288 9.56566C27.5288 9.6904 27.5471 9.83353 27.5471 9.95827C27.9715 9.90469 29.0545 8.85242 29.0545 6.92538C29.0655 6.5777 29.0053 6.23146 28.8776 5.90829ZM31.5504 9.4945C31.5687 9.33458 31.6393 9.26262 31.7273 9.26262C31.9217 9.26262 32.2034 9.60165 32.2034 9.97586C32.2034 11.655 30.9816 13.9363 29.2116 13.9363C26.9282 13.9363 25.9365 11.8669 25.9365 9.6904C25.9365 6.51519 27.0695 5.21264 28.5745 5.21264C28.5745 4.78485 28.8918 4.71289 29.0703 4.71289C30.0613 4.71289 30.4151 5.40934 30.4151 6.80065C30.4175 8.99235 28.9307 10.6715 27.8335 10.6715H27.6748C27.9223 11.5279 28.4682 12.3667 29.5511 12.3667C30.8078 12.3667 31.41 10.9218 31.5512 9.4945" fill="white"/>
<path d="M36.029 10.0319C36.029 8.42628 36.505 6.67835 36.505 6.12502C36.505 6.01788 36.4875 5.94671 36.4344 5.94671C36.117 5.94671 34.9119 8.21198 34.3811 10.674C34.3629 11.9765 34.2748 12.9752 34.2748 12.9752C34.328 13.0296 34.3629 13.1719 34.3629 13.315C34.3629 13.5469 34.2748 13.7948 33.9384 13.7948C33.2657 13.7948 32.097 13.0816 32.097 12.2068C32.097 11.332 32.573 10.8155 32.573 6.81908C32.573 5.85556 31.8828 5.32063 31.8828 5.10633C31.8828 4.87445 32.1303 4.66016 32.3247 4.66016C32.5016 4.66016 32.8563 4.67775 33.2633 5.08874C33.9186 5.74841 34.201 7.19329 34.3256 8.67415C35.069 6.89024 36.0425 5.07035 36.6264 5.07035C38.202 5.07035 38.6622 5.89154 38.6622 6.26575C38.6622 6.80149 38.2909 9.1739 38.2909 11.0114C38.2909 12.278 38.4678 13.295 39.0692 13.295C39.9895 13.295 40.4322 9.70963 40.4853 9.19149C40.5036 9.03157 40.5742 8.95961 40.6623 8.95961C40.8574 8.95961 41.1383 9.31703 41.1383 9.65606V9.71203C40.9963 11.0714 40.6956 14.5288 38.7129 14.5288C37.0881 14.5256 36.029 12.7057 36.029 10.0319Z" fill="white"/>
<path d="M45.7876 9.28013C45.9819 9.28013 46.2834 9.63675 46.2834 9.99417V10.0317C46.1946 11.7621 44.849 14.3672 42.6188 14.4208H42.5831C41.2915 14.4208 40.495 13.4396 40.495 12.2794C40.495 11.9596 40.6894 11.7621 40.7957 11.7621C40.8488 11.7621 40.8837 11.7981 40.8837 11.8876C40.8837 12.3674 41.1678 13.2078 41.7517 13.2078C42.3713 13.2078 42.814 12.5833 42.814 11.6014C42.814 10.4427 42.0349 9.31851 41.3796 8.37258L41.2733 8.21266C41.1852 9.57198 41.0607 10.4435 41.0607 10.4435C41.0607 10.4435 41.0607 10.5139 40.9726 10.5139C40.76 10.4787 40.3887 10.3004 40.3887 10.0685V10.0317C40.3887 10.0317 40.5299 8.97948 40.6187 7.15959C40.5409 7.01737 40.4984 6.85822 40.495 6.69582C40.495 5.19737 42.123 4.64404 42.5482 4.64404C42.9735 4.64404 43.1496 4.82235 43.1496 5.21496C43.1496 5.30451 42.9909 5.71471 42.9909 6.24964C42.9909 8.49812 44.849 8.97947 44.849 11.6549C44.8491 11.9134 44.8196 12.171 44.7609 12.4226C45.4155 11.623 45.5543 10.4603 45.6281 9.49682C45.6455 9.3369 45.6987 9.28252 45.7868 9.28252" fill="white"/>
<path d="M48.4925 5.90829C47.8023 6.05142 47.1438 7.35397 47.1438 9.56566C47.1438 9.6904 47.162 9.83353 47.162 9.95827C47.5865 9.90469 48.6694 8.85242 48.6694 6.92538C48.6808 6.57767 48.6206 6.23135 48.4925 5.90829ZM51.1654 9.4945C51.1828 9.33458 51.2542 9.26262 51.3423 9.26262C51.5375 9.26262 51.8183 9.60165 51.8183 9.97586C51.8183 11.655 50.5965 13.9363 48.8265 13.9363C46.5432 13.9363 45.5522 11.8669 45.5522 9.6904C45.5522 6.51519 46.6844 5.21264 48.1894 5.21264C48.1894 4.78485 48.5068 4.71289 48.6853 4.71289C49.6762 4.71289 50.034 5.40934 50.034 6.80065C50.034 8.99475 48.5464 10.6715 47.4492 10.6715H47.2905C47.5381 11.5279 48.0839 12.3667 49.1669 12.3667C50.4236 12.3667 51.0257 10.9218 51.167 9.4945" fill="white"/>
<path d="M63.8617 2.15175C63.8617 3.48708 63.3492 4.73286 62.8549 5.92586C62.5909 7.04574 62.4546 8.19232 62.4487 9.34335C62.4487 14.9677 63.6316 15.573 64.2322 15.573C64.4209 15.5681 64.6069 15.526 64.7796 15.4491C64.7971 15.4491 64.8328 15.5019 64.8328 15.5203C64.8328 15.6802 64.586 16 64.2147 16C62.3781 16 60.8032 14.38 60.6113 10.5172C59.234 13.0095 57.8218 15.0565 57.2918 15.0565C56.5143 15.0565 54.4658 13.4573 54.4658 11.639C54.4658 9.41372 55.6662 2.2397 56.1081 1.79512C56.1795 1.71553 56.2668 1.65212 56.3643 1.60911C56.4618 1.5661 56.5673 1.54447 56.6738 1.54565C57.3973 1.54565 58.2272 2.454 58.2272 2.93456C58.2308 2.97046 58.2263 3.00672 58.2141 3.04064C58.2019 3.07456 58.1822 3.10526 58.1566 3.13046C57.5028 3.77014 56.2525 9.23541 56.2525 11.9053C56.2525 12.7776 56.3937 13.3446 56.7285 13.3446C57.629 13.3446 59.2895 10.4252 60.685 7.52346C60.8969 4.4442 61.5324 0.688477 62.1861 0.688477C62.751 0.688477 63.7228 1.0443 63.8641 2.14775" fill="white"/>
<path d="M68.5849 10.0253C68.5849 8.42609 69.061 6.67897 69.061 6.12724C69.061 6.02089 69.0435 5.94893 68.9903 5.94893C68.673 5.94893 67.471 8.2094 66.9411 10.6666C66.9236 11.9667 66.8356 12.963 66.8356 12.963C66.8879 13.0166 66.9236 13.1589 66.9236 13.3013C66.9236 13.5331 66.8356 13.781 66.5 13.781C65.8288 13.781 64.6633 13.0694 64.6633 12.197C64.6633 11.3246 65.1393 10.8089 65.1393 6.8213C65.1393 5.86177 64.4507 5.32604 64.4507 5.11255C64.4507 4.88146 64.6982 4.66797 64.8926 4.66797C65.0687 4.66797 65.4226 4.68556 65.8288 5.09496C66.4817 5.75303 66.7649 7.19551 66.8879 8.67237C67.6297 6.89246 68.6016 5.07417 69.1887 5.07417C70.7604 5.07417 71.2189 5.89376 71.2189 6.26717C71.2189 6.80131 70.8484 9.16893 70.8484 11.0024C70.8484 12.2658 71.0254 13.2805 71.6259 13.2805C72.5439 13.2805 72.9858 9.70306 73.0381 9.18652C73.0564 9.0266 73.127 8.95543 73.215 8.95543C73.4094 8.95543 73.6911 9.31125 73.6911 9.64949V9.70306C73.5499 11.0552 73.25 14.5087 71.2713 14.5087C69.6465 14.5087 68.5873 12.6936 68.5873 10.0229" fill="white"/>
<path d="M74.1797 1.26748C74.3916 1.05399 74.9215 0.858887 75.1865 0.858887C75.8046 0.858887 76.1576 1.33865 76.1576 1.90876C76.1557 2.00252 76.1179 2.09189 76.0521 2.15824C75.7871 2.4245 75.699 3.61751 74.9215 3.61751C74.5859 3.61751 73.8798 3.13775 73.8798 2.28218C73.8798 1.69527 73.9679 1.48258 74.1797 1.26748ZM75.0628 13.7996C74.7803 13.7996 74.0917 13.443 73.5966 12.9449C73.1904 12.5355 73.0317 11.0578 73.0317 9.54495C73.0317 7.80022 73.2436 6.00272 73.5078 5.75404C73.643 5.64633 73.8114 5.58974 73.9838 5.59412C74.3521 5.60413 74.7041 5.74977 74.9731 6.00352C75.1318 6.16344 75.2206 6.37773 75.2206 6.73355C75.2206 6.98303 75.0969 7.05339 75.0969 7.05339C75.0969 7.05339 74.7962 9.54495 74.7962 11.1649C74.7962 11.9486 74.8668 12.5355 75.0786 12.5355C76.0854 12.5355 76.348 10.702 76.4393 10.0255C76.4393 9.97274 76.5099 9.93675 76.5979 9.93675C76.7923 9.93675 77.1105 10.0791 77.1105 10.2926C77.1002 10.7991 77.0229 11.302 76.8804 11.7878C76.563 12.8737 75.8212 13.7996 75.0612 13.7996" fill="white"/>
<path d="M76.4209 9.72329C76.4209 6.42974 77.9926 5.11279 79.6531 5.11279C80.6599 5.11279 81.366 5.62934 81.366 6.42974C81.366 7.54918 80.6773 8.95808 80.1474 8.95808C80.1237 8.9596 80.1001 8.95604 80.0779 8.94761C80.0558 8.93919 80.0356 8.92611 80.0189 8.90924C80.0022 8.89237 79.9892 8.87209 79.9808 8.84977C79.9725 8.82744 79.9689 8.80358 79.9704 8.77976C79.9704 8.74378 79.9704 8.69101 80.0061 8.67262C80.1831 8.47752 80.5004 7.74748 80.5004 6.66162C80.5004 6.16347 80.2886 5.75327 80.0244 5.75327C79.4595 5.75327 78.1203 6.78636 78.1203 9.97197C78.1203 11.6815 79.0033 12.8737 80.1339 12.8737C81.7762 12.8737 82.1649 10.2214 82.2355 9.61615C82.253 9.45623 82.3061 9.38506 82.3942 9.38506C82.5886 9.38506 82.8885 9.74089 82.8885 10.0967V10.1327C82.7655 11.4496 82.1649 14.2266 79.9744 14.2266C77.7839 14.2266 76.4249 12.2508 76.4249 9.72329" fill="white"/>
<path d="M86.4215 8.1029C86.4215 8.1029 86.404 8.31639 86.404 8.4947C86.4004 8.56633 86.4063 8.63813 86.4215 8.70819V8.1029ZM86.3866 7.10579C86.3683 6.76756 86.2803 6.16306 85.8391 6.16306C84.8324 6.16306 84.1786 8.67221 84.1786 10.5609C84.1786 11.7003 84.4079 12.6078 84.9561 12.6078C85.4504 12.6078 85.9804 11.3085 86.2453 10.0979C85.8566 9.81324 85.5742 9.27911 85.5742 8.46032C85.5742 7.80145 85.9447 7.18096 86.3866 7.10739V7.10579ZM91.6315 12.3768C91.6315 13.2483 91.9671 13.3555 92.1798 13.3555C92.9033 13.3555 93.5039 10.4897 93.5571 9.93798C93.5745 9.77806 93.6451 9.70609 93.7332 9.70609C93.9284 9.70609 94.2092 10.0091 94.2092 10.3458V10.4313C94.068 11.7491 93.5745 14.383 91.914 14.383C90.1297 14.383 89.7417 12.8525 89.7417 11.446C89.7417 10.0219 90.3241 7.70789 90.3241 7.24492C90.3241 6.92508 90.0416 6.6932 89.6894 6.4973C89.3355 8.86811 88.1534 10.1115 87.1458 10.2714C86.7928 12.4255 85.8915 14.1343 84.7657 14.1343C83.7589 14.1343 82.2222 12.8341 82.2222 10.4137C82.2222 7.97496 83.1052 5.16276 85.2068 5.16276C86.3017 5.16276 86.9911 5.75047 86.9911 6.39095C86.9911 6.81794 86.9197 7.03063 86.8142 7.15617C87.1855 7.33448 87.3085 7.81504 87.3085 8.2956C87.3085 8.70499 87.291 9.0952 87.2561 9.4878C87.9797 9.34547 88.9158 8.20844 89.0571 6.15987C88.581 5.91039 88.1383 5.62573 88.1383 5.21634C88.1383 4.82453 88.7572 4.52148 89.234 4.52148C89.5513 4.52148 89.7989 4.64622 89.7989 4.96686C89.7989 5.19795 89.7989 5.41144 89.7814 5.60654C90.7176 5.96237 92.2718 6.62124 92.2718 7.74308C92.2718 8.34757 91.6371 11.4092 91.6371 12.3712" fill="white"/>
<path d="M98.1889 10.0253C98.1889 8.42609 98.665 6.67897 98.665 6.12724C98.665 6.02089 98.6467 5.94893 98.5944 5.94893C98.277 5.94893 97.0758 8.2094 96.5459 10.6666C96.5276 11.9667 96.4396 12.963 96.4396 12.963C96.4927 13.0166 96.5276 13.1589 96.5276 13.3013C96.5276 13.5331 96.4396 13.781 96.104 13.781C95.4328 13.781 94.2673 13.0694 94.2673 12.197C94.2673 11.3246 94.7433 10.8089 94.7433 6.8213C94.7433 5.86177 94.0547 5.32604 94.0547 5.11255C94.0547 4.88146 94.3014 4.66797 94.4958 4.66797C94.6727 4.66797 95.0258 4.68556 95.432 5.09496C96.0857 5.75303 96.3682 7.19551 96.4919 8.67237C97.2337 6.89246 98.2048 5.07417 98.7879 5.07417C100.36 5.07417 100.819 5.89376 100.819 6.26717C100.819 6.80131 100.448 9.16893 100.448 11.0024C100.448 12.2658 100.625 13.2805 101.225 13.2805C102.143 13.2805 102.585 9.70306 102.638 9.18652C102.656 9.0266 102.726 8.95543 102.814 8.95543C103.009 8.95543 103.29 9.31125 103.29 9.64949V9.70306C103.149 11.0552 102.849 14.5087 100.871 14.5087C99.2457 14.5087 98.1866 12.6936 98.1866 10.0229" fill="white"/>
<path d="M107.93 9.27772C108.124 9.27772 108.425 9.63434 108.425 9.99017V10.0253C108.336 11.7517 106.997 14.3512 104.768 14.4048H104.735C103.446 14.4048 102.651 13.4253 102.651 12.2682C102.651 11.9484 102.845 11.7517 102.951 11.7517C103.004 11.7517 103.04 11.7877 103.04 11.8772C103.04 12.357 103.322 13.1942 103.905 13.1942C104.523 13.1942 104.964 12.5713 104.964 11.595C104.964 10.4379 104.188 9.3169 103.536 8.37337L103.431 8.21345C103.342 9.56638 103.218 10.4379 103.218 10.4379C103.218 10.4379 103.218 10.5091 103.13 10.5091C102.918 10.4739 102.547 10.2956 102.547 10.0645V10.0285C102.547 10.0285 102.689 8.97867 102.777 7.16278C102.699 7.02074 102.657 6.86192 102.653 6.69981C102.653 5.20536 104.278 4.65283 104.702 4.65283C105.125 4.65283 105.302 4.83114 105.302 5.22295C105.302 5.3117 105.144 5.7211 105.144 6.25523C105.144 8.49811 106.998 8.97867 106.998 11.6485C106.998 11.9062 106.968 12.163 106.91 12.4138C107.563 11.6142 107.703 10.4555 107.775 9.49521C107.793 9.33529 107.846 9.28092 107.934 9.28092" fill="white"/>
</g>
<defs>
<clipPath id="clip0_7033_21688">
<rect width="108" height="16" fill="white" transform="translate(0.424805)"/>
</clipPath>
</defs>
</svg>
