<?xml version="1.0" encoding="UTF-8"?>
<svg id="Logos" xmlns="http://www.w3.org/2000/svg" version="1.1" viewBox="0 0 1046.67 1728">
  <!-- Generator: Adobe Illustrator 30.0.0, SVG Export Plug-In . SVG Version: 2.1.1 Build 123)  -->
  <defs>
    <style>
      .st0 {
        fill: #374151;
      }
    </style>
  </defs>
  <path class="st0" d="M1025.16,1187.91l-14.51,16.87c-16.77,19.52-35.26,31.57-54.97,35.86-12.76,2.77-21.16,1.38-35.08-.92-7.4-1.22-15.79-2.6-26.22-3.53-4.79-.43-36.91-2.89-73.98,3.61-7.87,1.38-15.96,3.17-24.07,5.47-7.17,2.03-14.34,4.45-21.37,7.35-13.63,5.62-25.88,12.66-36.89,20.55-2.52-3.16-5.16-6.25-7.92-9.27,12.41-8.9,23.73-17.69,33.76-25.92,15.19-12.46,27.43-23.57,35.96-31.7,5.97-3.81,11.92-8.06,17.8-12.77,39.47-31.61,72.21-80.23,92.17-136.9,8.18-23.22,13.8-46.73,16.88-69.79,30.16-100.52,37.21-194.2,33.6-273.52.02-.01.03-.02.05-.04,21.28-28.65,38.86-59.26,52.43-91.4,14.8-35.05,24.89-71.96,30.01-109.71,4.39-32.41,4.35-59.78,3.18-79.24-1.17-19.31-3.45-30.84-3.65-31.77h-.02c-1.34-6.56-6.43-11.71-12.97-13.11-45.05-9.68-98.3-5.17-158.29,13.39-8.8,2.72-17.35,5.68-25.74,8.74-17.89-15.6-37.52-28.96-58.35-39.55-53.9-27.39-107.62-42.32-152.55-50.4-.8-.14-1.6-.28-2.4-.42-7.08-44.01-15.48-87.84-25.01-131.32-4.72-21.54-9.66-43.01-14.97-64.33l-5.6-22.52c-8.49-37.69-19.7-65.28-33.31-82.03C539.39,2.67,525.84.06,519,0h-3.74c-6.85.06-20.39,2.68-34.13,19.59-13.62,16.74-24.82,44.34-33.31,82.03l-5.61,22.52c-16.21,65.13-29.68,131.36-40.33,197.94-42.85,8.44-92.77,23.12-142.8,48.54-20.77,10.56-40.34,23.86-58.18,39.4-8.26-3-16.68-5.92-25.33-8.6-59.98-18.55-113.24-23.07-158.28-13.39-6.55,1.4-11.64,6.56-12.97,13.11h0c-.25,1.21-4.03,20.3-4.3,51.09v7.08c.13,15.33,1.16,33.15,3.83,52.84,2.67,19.74,6.74,39.25,12.1,58.39,4.89,17.45,10.84,34.6,17.9,51.32,13.46,31.89,30.88,62.26,51.93,90.72-.41,8.77-.68,17.71-.81,26.82-.92,64.52,5.53,137.36,25.34,214.9,2.16,8.45,4.46,16.94,6.94,25.49.45,4.06.96,8.14,1.58,12.23,2.26,15.09,5.64,30.34,10.08,45.55,1.85,6.35,3.86,12.7,6.09,19.03,19.96,56.67,52.7,105.3,92.17,136.91,7.02,5.62,14.12,10.58,21.26,14.91,15.3,14.41,40.68,36.76,72.83,59.32,7.04,4.94,14.06,9.62,21.08,14.1-5.92,8.17-11.31,16.76-16.11,25.73-5.39,10.07-10.1,20.6-13.96,31.57l-32.17,91.36c-9.78,27.77-15.41,56.77-16.75,86.19l-6.67,146.72c0,.19,0,.37,0,.56l-.97,21.4c-.35,7.53,5.68,13.82,13.22,13.82h145.38c7.31,0,13.23-5.92,13.23-13.22v-15.92c.16-1.09.27-2.19.33-3.31h72.33l-5.14,46.57c-.86,7.83,5.27,14.67,13.16,14.67h12.1s.07,0,.1,0c.07,0,.13.01.19.01h139.59s.08-.01.11-.01c.02,0,.04,0,.06,0h9.63,0s0,0,0,0c.02,0,.04,0,.06,0,6.66-.03,12.27-5.02,13.08-11.63l1.14-9.39c.02-.12.06-.24.08-.36l4.83-39.85h111.63s.07,0,.11,0h3.62c7.42,0,13.38-6.08,13.23-13.5l-.08-3.7c-.35-17.34-.6-25.05-1.46-38.99-.45-8.09-1.05-17.28-1.82-27.35l-.76-11.18h-.14c-3.29-38.68-9.2-88.47-19.79-141.89,4.3-.28,8.05-.63,11.06-.92,29.34-2.78,57.39-12.53,83.38-28.99l18.29-11.59c4.8-3.03,3.88-10.27-1.52-12.02,13.52-1.67,27.7-5.53,41.78-12.7,36.06-18.36,53.39-49.62,67.33-74.74,12.1-21.79,20.81-45.34,25.91-70l4.52-21.79c2.31-11.22-11.83-18.17-19.3-9.48ZM893.75,979.49c-2.39,19.3-6.85,39.05-13.28,58.73-.78,2.4-1.57,4.79-2.41,7.19-13.35,37.92-32.86,71.63-56.29,97.82-5.95,6.65-12.15,12.82-18.57,18.45-.11.1-.22.19-.34.29-2.06,1.8-4.15,3.55-6.25,5.24-5.84,4.68-11.7,8.78-17.56,12.34-26.56,16.14-52.9,20.68-75.66,12.67-17.12-6.02-31.36-18.86-41.88-37.27-.38-.84-1.64-3.52-3.91-7.45-4.7-9.78-8.47-20.86-11.2-33.14-1.57-7.07-2.72-14.39-3.54-21.87,13.74,15.94,34.04,26.08,56.75,26.08,33.64,0,62.1-22.16,71.57-52.67,2.18-7.02,3.36-14.48,3.36-22.22s-1.19-15.3-3.4-22.36c-5.97,13.17-19.2,22.36-34.61,22.36-20.99,0-38-17-38-37.98,0-14.98,8.7-27.89,21.3-34.08-6.44-1.8-13.2-2.83-20.21-2.83-17.11,0-32.83,5.8-45.44,15.44,1.57-5.27,3.24-10.54,5.1-15.8,17.6-49.97,45.88-92.6,79.74-120.37.57-.47,1.14-.97,1.71-1.43,23.77-19.04,47.95-28.88,70.12-28.89,8,0,15.73,1.28,23.09,3.87,27.78,9.77,48.01,37.42,56.98,77.86,5.44,24.52,6.33,51.77,2.83,80.02ZM474.91,132.26l5.65-22.7.09-.37c6.65-29.59,13.93-47.65,20.14-58.64,4.92-8.71,9.17-12.99,11.9-15.05,1.73-1.3,2.85-1.72,3.15-1.81h0c.86,0,1.73,0,2.58,0,.56.17,3.98,1.48,8.88,7.58,7.09,8.84,17.28,27.75,26.31,67.93l5.74,23.07c5.44,21.87,10.5,43.88,15.32,65.96-19.31-6-36.72-13.48-52.22-22.44-19.09-11.04-35.23-24.32-48.41-39.8.3-1.24.58-2.48.89-3.72ZM461.7,188.72c12.56,10.97,26.57,20.71,41.99,29.24,23.78,13.15,50.97,23.37,81.43,30.68,4.28,21.95,8.19,43.98,11.85,66.05.95,5.77,1.91,11.53,2.82,17.3.91,5.75,1.76,11.51,2.63,17.27,1.2,7.96,2.37,15.92,3.48,23.89-7.99-.57-15.8-1.34-23.39-2.35-33.27-4.43-62.6-13.05-87.86-25.86-9-4.57-17.46-9.69-25.41-15.32-6.11-4.32-11.94-8.93-17.44-13.87-.44-.4-.83-.81-1.26-1.21-4.04-3.71-7.8-7.52-11.31-11.39,6.54-38.34,14.04-76.53,22.47-114.42ZM419.66,442.44c3.07-28.17,6.72-56.35,10.84-84.49,11.67,9.45,24.35,17.77,37.93,25.08,39.82,21.42,87.73,33.68,143.45,36.56.91,7.62,1.86,15.24,2.69,22.86l10.44,95.7c-8.83-.28-17.48-.75-25.94-1.44-38.14-3.11-72.46-10.32-102.47-21.67-31.23-11.81-57.86-28.15-79.55-48.55l2.62-24.04ZM408.59,543.99l2.5-22.9c13.16,9.54,27.41,18.06,42.72,25.49,7.88,3.82,16.01,7.38,24.44,10.63,39.89,15.39,86.03,24.23,137.59,26.54-4.01,5.96-9.11,11.25-15.19,15.49-21.53,15.03-49.06,22.65-83.53,22.65-17.76,0-33.88-2.13-48.34-6.28-13.6-3.9-25.73-9.59-36.23-17.11-17.11-12.26-26.28-33.15-23.95-54.51ZM127.45,869.55c-7.87-51.98-9.92-100.87-8.43-145.3,3.52-.11,6.71-.51,9.35-.98,3.58-.65,5.09-4.93,2.74-7.69-3.75-4.41-7.38-8.89-10.93-13.42-.03-.04-.07-.09-.1-.13-5.37-6.85-10.48-13.84-15.37-20.94-5.16-7.49-10.05-15.12-14.67-22.87-9.38-15.72-17.71-31.92-24.79-48.59-13.65-32.13-23.02-65.97-27.83-100.58-4.25-30.58-4.24-57.87-2.93-77.23.1-1.47.46-2.86.94-4.19,2.01-5.55,7.02-9.66,13.15-10.15,34.12-2.77,73.36,2.63,117.02,16.14,2.89.89,5.77,1.82,8.62,2.76,5.86,1.93,11.62,3.95,17.28,6.04,5.84,2.15,11.58,4.36,17.16,6.62.96.39,1.91.78,2.87,1.18,22,9.04,41.71,18.64,57.65,27.06,3.73,1.97,7.8-1.97,5.96-5.76-2.57-5.27-5.24-9.96-7.91-14.23-10.04-16.04-20.12-25.33-25.72-29.7-2.73-2.13-4.42-3.15-4.47-3.17-.1-.04-.21-.09-.31-.13,11.9-9.02,24.5-16.96,37.65-23.64,19.05-9.68,38.09-17.7,56.67-24.35h0c.23-.09.45-.16.67-.24,5.4-1.92,10.76-3.74,16.06-5.43.09-.03.17-.06.26-.08,5.31-1.69,10.56-3.27,15.76-4.75.39-.11.78-.23,1.17-.34,5.03-1.42,9.99-2.74,14.89-3.97.51-.13,1.03-.26,1.54-.39,4.83-1.2,9.59-2.32,14.28-3.36.26-.06.53-.13.79-.19,0,0,0,0,0,.01,0,0,.01,0,.02,0-.05.37-.12.73-.17,1.1-.39,2.68-.73,5.37-1.1,8.05-.53,3.77-1.01,7.54-1.53,11.31-.95,7.04-1.96,14.07-2.85,21.12-.12.99-.23,1.97-.35,2.96-1.53,12.24-2.99,24.48-4.32,36.72l-11.07,101.55c-.05.42-.06.85-.1,1.27-.18,1.89-.32,3.78-.38,5.66-.04,1.02-.03,2.03-.03,3.05,0,1.38.01,2.76.07,4.13,1.18,28.32,15.09,54.83,38.25,71.43,27.49,19.7,62.56,29.7,104.22,29.7h0c40.93,0,75.53-9.66,102.83-28.71,27.88-19.46,42.9-52.62,39.2-86.54l-11.07-101.54c-3.05-27.94-6.64-55.89-10.7-83.81,1.03.2,2.06.41,3.1.62,37.42,7.58,80.37,20.27,123.75,41.35,2.48,1.21,4.97,2.41,7.45,3.68,13.22,6.72,25.89,14.72,37.86,23.81-.65.38-15.46,9.38-30.13,32.83-2.67,4.27-5.34,8.96-7.91,14.23-1.85,3.79,2.22,7.73,5.95,5.76,16.53-8.73,37.1-18.74,60.1-28.07,3.24-1.32,6.54-2.61,9.87-3.89,2.4-.93,4.83-1.84,7.28-2.74,5.65-2.09,11.41-4.11,17.26-6.04,3-.99,6.02-1.97,9.06-2.91,43.66-13.51,82.9-18.91,117.02-16.14,5.19.42,9.57,3.44,12.02,7.72,1.14,1.99,1.9,4.22,2.07,6.63,1.31,19.36,1.32,46.65-2.93,77.23-4.81,34.61-14.18,68.45-27.82,100.58-7.2,16.95-15.68,33.42-25.27,49.39-4.63,7.71-9.52,15.31-14.68,22.77-4.78,6.9-9.75,13.7-14.97,20.37l-.52-.73c.03.43.05.87.08,1.31-3.41,4.33-6.9,8.61-10.49,12.84-2.35,2.76-.84,7.05,2.74,7.69,2.5.45,5.48.84,8.77.97,1.52,45.12-.63,94.84-8.8,147.72-13.76-41.37-39.22-70.21-73.11-82.13-39.16-13.78-83.73-2.95-125.49,30.49-28.94,23.18-54.24,55.53-73.56,93.47-7.03,13.8-13.29,28.32-18.61,43.43-12.84,36.47-19.44,73.63-19.62,108.67-.06,10.77.51,21.32,1.68,31.6-5.9-3.78-12.45-7.4-19.72-10.63-18-8.02-40.26-13.71-67.27-13.72h-.04c-26.41,0-48.3,5.45-66.08,13.19-7.83,3.41-14.83,7.26-21.1,11.3,1.18-10.32,1.75-20.92,1.7-31.73-.18-35.03-6.78-72.21-19.62-108.67-19.96-56.66-52.7-105.29-92.17-136.9-5.26-4.21-10.56-8.06-15.89-11.55-37.01-24.24-75.37-31-109.61-18.96-33.22,11.69-58.32,39.66-72.26,79.74ZM268.88,1181.35c-6.88-3.95-13.77-8.63-20.64-14.13-1.77-1.42-3.52-2.91-5.26-4.41-.33-.29-.67-.55-1-.84-6.06-5.29-11.92-11.08-17.57-17.28-24.02-26.4-44.02-60.65-57.63-99.29h0c-8.54-24.23-14.01-48.7-16.39-72.38-2.61-25.94-1.49-50.92,3.53-73.55,6.64-29.94,19.47-52.85,36.96-66.71,6.13-4.86,12.82-8.62,20.02-11.16,27.78-9.78,60.87-.9,93.22,25,34.63,27.73,63.56,70.99,81.46,121.81.16.46.3.92.46,1.39,2.93,8.42,5.48,16.87,7.67,25.3,3.22,12.41,5.64,24.77,7.24,36.97-6.91,7.14-16.58,11.59-27.3,11.59-20.99,0-38-17-38-37.98,0-14.98,8.69-27.89,21.29-34.07-6.44-1.8-13.2-2.84-20.22-2.84-41.38,0-74.93,33.53-74.93,74.89,0,7.74,1.17,15.2,3.35,22.22,9.47,30.51,37.93,52.67,71.57,52.67,28.82,0,53.81-16.29,66.34-40.14-.57,12.46-2.09,24.5-4.63,35.94-6.51,29.36-18.99,51.94-35.96,65.87-6.4,5.25-13.41,9.31-21.02,11.99-21.87,7.7-47.06,3.77-72.58-10.88ZM341.16,1240.55c-5.27-3.69-10.34-7.38-15.23-11.04,9.11-.66,18.05-2.46,26.72-5.52,20.06-7.06,37.15-20.07,50.63-38.07,3.97-5.29,7.6-11.04,10.92-17.18l.05.02s.2-.43.53-1.09c.42-.8.86-1.58,1.28-2.39,3.08-5.52,10.23-16.81,22.49-27.92,22.35-20.26,50.58-30.53,83.94-30.53,19.12,0,36.55,3.39,52.17,10.09,7.08,3.04,13.78,6.77,20.1,11.17,4.05,2.82,7.95,5.89,11.67,9.26,11.11,10.07,18.02,20.29,21.52,26.23,14.66,29.76,36.65,50.71,64.23,60.41,2.56.9,5.15,1.67,7.75,2.36,6.58,1.75,13.3,2.78,20.11,3.2-2.4,1.8-4.85,3.6-7.35,5.42-2.56,1.85-5.16,3.71-7.8,5.56-.04.03-.09.06-.13.09-4.98,3.48-9.89,6.8-14.72,9.95-3.63,2.37-7.21,4.63-10.76,6.82-1.59.98-3.18,1.97-4.75,2.92-.79.48-1.58.94-2.37,1.41-65.95,39.29-116.65,48.29-149.14,48.29-27.87,0-69.13-6.62-121.92-33.29-2.11-1.07-4.24-2.17-6.39-3.3-5.03-2.65-10.16-5.47-15.39-8.5-4.92-2.85-9.93-5.86-15.03-9.05-7.53-4.72-15.23-9.81-23.13-15.34ZM393.81,1649.9v15.6h-38.26l-11.37-32.86c-.84-2.43-4.27-2.43-5.11,0l-11.37,32.86h-37.36l.3-6.66,1.74-38.38h101.42v29.44ZM507.14,1603.9h-.01l-3.22,29.15h-27.36l-6.74-19.48c-.84-2.43-4.27-2.43-5.11,0l-6.74,19.48h-29.19l.75-29.2h77.62v.05ZM655.17,1666.75h0s-1.39,11.45-1.39,11.45l-1.95,16.1h-42.79l-12.36-35.73c-.84-2.43-4.27-2.43-5.11,0l-12.36,35.73h-48.15l3.04-27.55,1.86-16.84,1.36-12.32h121.39l-3.54,29.16ZM681.29,1493.3c-5.33,15.4-8.9,31.35-10.86,47.54l-3.48,28.72-.3,2.47-2.04,16.85-1.82,15.03h-121.75l1.86-16.9,1.86-16.85,3.61-32.68c1.66-15.08-.68-30.38-6.78-44.27-2.11-4.82-4.66-9.44-7.6-13.82l-9-13.4-14.93-22.21-9.32-13.87c-1.44-2.14-4.09-2.34-5.9-1.17-1.04.67-1.8,1.79-1.89,3.27-.39,6.55-.17,15.46,1.8,26.59,1.96,11.06,5.65,24.29,12.19,39.56l3.79,8.62c.45,1.03.87,2.07,1.25,3.12,2.78,7.62,3.78,15.82,2.88,23.9l-2.54,23.02-1.48,13.36h-80.48l.71-27.51c.2-8,2.32-15.9,6.02-23,.24-.46.42-.94.67-1.39l2.8-4.95c7.65-11.05,12.25-21.5,14.96-30.6,3.49-11.71,3.86-21.19,3.62-26.81-.09-2.11-1.69-3.69-3.58-3.99-.74-.12-1.53-.06-2.29.27-21.81,9.33-35.25,32.4-36.65,34.88l-8.26,14.79c-6.81,12.18-10.6,26-10.96,39.95l-.73,28.37-.43,16.61h-102.34l3.11-68.55c1.18-26.12,6.19-51.87,14.87-76.53l32.17-91.36c6.56-18.63,15.88-35.81,27.4-51.16,14.17,7.8,28.21,14.67,42.05,20.45,4.34,1.81,8.66,3.5,12.96,5.11,33.61,12.58,66.03,18.98,96.53,18.99,30.28,0,62.44-6.29,95.78-18.69,4.55-1.69,9.12-3.48,13.71-5.4,14.16-5.92,28.55-12.96,43.06-21,8.74-4.84,17.52-10.03,26.33-15.61,3.75,3.87,7.19,7.93,10.45,12.1,3.54,4.51,6.84,9.17,9.8,14.03,3.1,5.08,5.83,10.38,8.29,15.83,2.55,5.65,4.85,11.44,6.71,17.48,3.27,10.64,6.3,21.34,9.13,32.04,1.71,6.48,3.34,12.96,4.9,19.42,1.45,6,2.84,11.99,4.16,17.96.69,3.12,1.38,6.24,2.04,9.35.58,2.74,1.15,5.48,1.7,8.21,10.85,53.17,16.97,103.47,20.41,142.58h-78.87l5.26-43.38c3.95-32.59.22-50.16-3.53-59.13-2.63-6.3-5.28-8.35-5.28-8.35h-.03s0,0,0,0c-6.42,8.17-11.73,20.46-15.77,32.13ZM783.46,1633.06h-40.78l-6.74-19.48c-.84-2.43-4.27-2.43-5.1,0l-6.74,19.48h-30.85l3.31-27.33h85.56c.77,11.81,1.15,18.76,1.43,27.33h-.08ZM984.56,1272.83c-12.91,23.29-26.28,47.37-53.15,61.06-34.14,17.39-71.29,7.73-85.67,2.76l-24.44-8.42c-5.8-2-11.05,4.15-8.14,9.57l12.23,22.76c.43.79,7.04,12.88,19.63,24.28-14.01,5.8-28.53,9.42-43.42,10.84-3.98.37-9.18.85-15.08,1.1-1.83-7.94-3.76-15.9-5.82-23.9-3.45-13.42-7.2-26.88-11.32-40.3-3.36-10.94-7.69-21.29-12.84-31.13,9.35-6.83,19.73-12.91,31.3-17.68,45.01-18.57,97.71-14.54,103.57-14.02,9.18.82,16.56,2.03,23.71,3.22,15.39,2.55,28.68,4.75,47.75.6,3.51-.76,6.96-1.74,10.39-2.84,5.32-1.7,10.57-3.75,15.69-6.25-1.4,2.82-2.86,5.6-4.39,8.36ZM375.72,735.05c1.49,8.83,4.06,19.53,8.4,31,.64,1.69,1.32,3.39,2.04,5.11,5.06,12.09,12.15,24.82,22.1,37.03,2.64,3.24,5.44,6.44,8.49,9.58,9.47,9.09,20.35,17.68,32.81,25.21,3.79,2.3,7.66,4.44,11.59,6.44,27.55,14.04,58.55,21.07,92.76,21.07,22.16,0,45.66-2.96,70.44-8.87,3.76-.9,7.55-1.85,11.37-2.88l8.14-2.21,8.18-2.22c6.21-1.69,7.98-9.64,3.07-13.79l-.46-.39-12.46-10.54c-.06-.05-1.83-1.57-4.78-4.35-2.22-2.09-5.08-4.88-8.48-8.4h.95c21.85,0,49.15-5.24,79.12-22.71,5.1-2.97,10.26-6.25,15.5-9.97,0,0,0,0,.02,0h-.01s12.82-9.1,12.82-9.1c5.74-4.07,3.76-13.03-3.16-14.34-47.32-9-70.56-28.4-81.68-42.86-1.81-2.36-4.83-2.22-6.65-.63-1.09.94-1.75,2.4-1.45,4.16,1.04,6.29,2.78,13.36,5.58,20.32,4.21,10.45,10.84,20.68,21.35,27.73,1.9,1.16,3.8,2.27,5.67,3.3-1.77.8-3.54,1.54-5.29,2.25-5.1,2.06-10.12,3.72-15.04,5.05-52.29,14.1-93.99-10.99-114.39-27.44-3.7-2.98-8.94.92-7.09,5.3,2.92,6.92,6.86,15.27,11.9,23.95,11.17,19.27,27.74,40.2,50.62,50.94-9.95,2.15-19.48,3.5-28.69,4.26-96.08,7.96-152.65-55.07-178.42-94.82-2.41-3.71-4.58-7.24-6.45-10.47-.2-.34-.46-.57-.71-.84-2.89-3.1-8.51-.75-7.74,3.88.01.08.03.16.04.24ZM893.96,611.69c2.84,4.68,9.53,5.4,13.39,1.46,2.4-2.44,4.69-4.86,6.91-7.26,5.14-5.56,9.79-10.99,14.04-16.3,5-6.25,9.42-12.32,13.3-18.2,33.63-50.94,27.56-87.51,22.86-101.8-1.27-3.9-5.38-6.28-9.53-5.5-18,3.37-35.29,9.24-50.86,15.9-5.38,2.3-10.55,4.69-15.47,7.11-5.32,2.62-10.34,5.25-15,7.84-13.49,7.48-24.04,14.46-30.19,18.76h0c-3.49,2.46-4.49,7.06-2.31,10.67l52.85,87.33ZM203.22,513.69h0c-6.22-4.36-16.92-11.44-30.62-19-4.67-2.58-9.69-5.2-15-7.81-4.93-2.42-10.1-4.79-15.49-7.09-15.45-6.57-32.58-12.37-50.4-15.71-4.15-.78-8.25,1.6-9.53,5.5-4.67,14.23-10.72,50.55,22.43,101.15,3.87,5.91,8.28,12.01,13.29,18.3,4.23,5.31,8.87,10.75,14,16.31,2.37,2.58,4.81,5.17,7.39,7.8,3.86,3.94,10.54,3.22,13.38-1.46l52.85-87.33c2.18-3.6,1.18-8.21-2.31-10.66ZM450.41,1257.62v-.02c9.21-3.85,28.16-8.75,45.41,5.93,2.44,2.08,5.42-1.33,4.33-4.95-3.37-11.2-11.07-26.22-28.15-26.21-15.4,0-22.22,11.38-25.15,19.65-1.12,3.16,1.09,6.62,3.57,5.59ZM548.8,1263.53c17.24-14.68,36.19-9.78,45.4-5.93v.02c2.48,1.03,4.7-2.43,3.57-5.59-2.93-8.27-9.75-19.65-25.15-19.65-17.08,0-24.78,15.01-28.15,26.21-1.09,3.62,1.89,7.03,4.33,4.95Z"/>
</svg>
