<svg width="57" height="32" viewBox="0 0 57 32" fill="none" xmlns="http://www.w3.org/2000/svg">
<path d="M10.4183 3H16.5241V24.4623C16.5241 27.4874 14.7165 29 11.1014 29H5.37993C1.79331 29 0 27.4874 0 24.4623V3H6.1058V23.6855C6.1058 24.3669 6.47585 24.7075 7.21594 24.7075H9.26544C10.034 24.7075 10.4183 24.3669 10.4183 23.6855V3Z" fill="#1f2937"/>
<path d="M20.8199 3H32.1348C35.7499 3 37.5575 4.49895 37.5575 7.49686V24.4623C37.5575 27.4874 35.7499 29 32.1348 29H20.8199V3ZM31.4517 23.9717V8.0283C31.4517 7.34696 31.0674 7.00629 30.2988 7.00629H26.9257V24.9937H30.2988C31.0674 24.9937 31.4517 24.653 31.4517 23.9717Z" fill="#1f2937"/>
<path d="M50.8942 23.6855V18.9843C50.8942 18.63 50.8088 18.3847 50.638 18.2484C50.4672 18.0849 50.1683 18.0031 49.7414 18.0031H45.9839C42.625 18.0031 40.9456 16.4769 40.9456 13.4245V7.49686C40.9456 4.49895 42.7389 3 46.3255 3H51.5347C55.1213 3 56.9146 4.49895 56.9146 7.49686V10.8899H50.8088V8.31447C50.8088 7.63312 50.4245 7.29245 49.656 7.29245H48.2042C47.4357 7.29245 47.0514 7.63312 47.0514 8.31447V12.8931C47.0514 13.2474 47.1368 13.5063 47.3076 13.6698C47.4784 13.8061 47.7773 13.8742 48.2042 13.8742H51.8763C53.698 13.8742 55.0074 14.2558 55.8045 15.0189C56.6015 15.7547 57 16.8585 57 18.3302V24.4623C57 27.4874 55.2067 29 51.6201 29H46.4536C42.8385 29 41.031 27.4874 41.031 24.4623V21.1101H47.1368V23.6855C47.1368 24.3669 47.5211 24.7075 48.2896 24.7075H49.7414C50.5099 24.7075 50.8942 24.3669 50.8942 23.6855Z" fill="#1f2937"/>
</svg>
